<svg width="19" height="19" viewBox="0 0 19 19" fill="none" xmlns="http://www.w3.org/2000/svg">
<path fill-rule="evenodd" clip-rule="evenodd" d="M14.9397 12.705C15.4538 12.7043 15.9517 12.5253 16.3485 12.1985C16.7453 11.8717 17.0165 11.4174 17.1158 10.913L18.2308 5.34003C18.2953 5.01705 18.2875 4.68374 18.2079 4.36414C18.1283 4.04453 17.9788 3.74657 17.7703 3.49164C17.5617 3.2367 17.2992 3.03114 17.0018 2.88977C16.7043 2.7484 16.3791 2.67471 16.0498 2.67401H4.94976V1.55902C4.94949 1.26417 4.83247 0.981416 4.62426 0.772644C4.41605 0.563872 4.13361 0.446065 3.83877 0.445007H1.62377C1.33396 0.453689 1.05894 0.574897 0.857015 0.782959C0.655092 0.991021 0.542165 1.26957 0.542165 1.55951C0.542165 1.84944 0.655092 2.128 0.857015 2.33606C1.05894 2.54412 1.33396 2.66533 1.62377 2.67401H2.73876V13.819C2.29748 13.8171 1.86554 13.9461 1.49767 14.1898C1.1298 14.4335 0.842564 14.7809 0.672322 15.188C0.50208 15.5952 0.456497 16.0436 0.541371 16.4767C0.626245 16.9097 0.837738 17.3079 1.14907 17.6206C1.4604 17.9333 1.85756 18.1466 2.29021 18.2334C2.72287 18.3202 3.17155 18.2767 3.57943 18.1083C3.98731 17.9399 4.33604 17.6542 4.58141 17.2874C4.82678 16.9206 4.95775 16.4893 4.95775 16.048H12.7238C12.7256 16.4867 12.8572 16.915 13.1023 17.2789C13.3473 17.6428 13.6946 17.9259 14.1004 18.0926C14.5062 18.2592 14.9523 18.3019 15.3823 18.2153C15.8124 18.1286 16.2071 17.9164 16.5167 17.6056C16.8263 17.2948 17.0368 16.8992 17.1218 16.4688C17.2067 16.0384 17.1622 15.5925 16.9939 15.1874C16.8256 14.7823 16.5411 14.436 16.1762 14.1925C15.8113 13.949 15.3825 13.819 14.9438 13.819H4.95678V12.705H14.9397ZM16.0548 4.90503L14.9397 10.478H4.95275V4.90503H16.0528H16.0548Z" fill="#33A0FF"/>
</svg>
