<svg width="18" height="17" viewBox="0 0 18 17" fill="none" xmlns="http://www.w3.org/2000/svg">
<path fill-rule="evenodd" clip-rule="evenodd" d="M12.3216 2.78803C12.9655 2.7887 13.5954 2.97518 14.1359 3.32514C14.6763 3.6751 15.1042 4.17365 15.3682 4.76087C15.6321 5.3481 15.721 5.99907 15.6241 6.63557C15.5271 7.27206 15.2485 7.86701 14.8216 8.34901C14.2086 9.04001 8.98168 13.9331 8.98168 13.9331C8.98168 13.9331 3.74367 9.04002 3.13067 8.33802C2.58947 7.73056 2.29175 6.94462 2.29467 6.13105C2.30983 5.25431 2.66874 4.41856 3.29412 3.8039C3.9195 3.18925 4.7613 2.84486 5.63817 2.84486C6.51504 2.84486 7.35679 3.18925 7.98217 3.8039C8.60754 4.41856 8.96652 5.25431 8.98168 6.13105C8.98168 5.69191 9.06814 5.25704 9.2362 4.85133C9.40425 4.44561 9.65059 4.07701 9.96111 3.76649C10.2716 3.45597 10.6402 3.20963 11.0459 3.04157C11.4517 2.87352 11.8865 2.78706 12.3257 2.78706L12.3216 2.78803ZM12.3257 0.558053C11.1194 0.555948 9.94532 0.947408 8.98168 1.67304C7.87772 0.853659 6.50982 0.471234 5.14098 0.599313C3.77214 0.727391 2.49894 1.35693 1.56615 2.36689C0.633359 3.37685 0.106805 4.69594 0.0876971 6.07063C0.0685887 7.44531 0.558275 8.77854 1.46264 9.81403C2.08864 10.532 6.21164 14.3921 7.46264 15.5581C7.87556 15.9442 8.41981 16.159 8.98516 16.159C9.55051 16.159 10.0947 15.9442 10.5076 15.5581C11.7516 14.3931 15.8576 10.5431 16.4916 9.82606C17.203 9.02252 17.6672 8.0307 17.8285 6.96974C17.9898 5.90877 17.8414 4.8238 17.401 3.84516C16.9606 2.86652 16.247 2.03582 15.346 1.45289C14.445 0.869961 13.3948 0.559578 12.3216 0.559029L12.3257 0.558053Z" fill="#33A0FF"/>
</svg>
