<svg width="39" height="28" viewBox="0 0 39 28" fill="none" xmlns="http://www.w3.org/2000/svg">
<path d="M2.15879 0.338135H37.1317C37.5824 0.347883 38.0111 0.546885 38.3233 0.891822C38.6356 1.23676 38.8058 1.69926 38.7967 2.17737V25.1686C38.8058 25.6467 38.6356 26.1087 38.3233 26.4536C38.0111 26.7986 37.5824 26.9981 37.1317 27.0078H2.15879C1.70807 26.9981 1.27938 26.7986 0.967145 26.4536C0.654905 26.1087 0.484646 25.6467 0.493756 25.1686V2.17737C0.484646 1.69926 0.654905 1.23676 0.967145 0.891822C1.27938 0.546885 1.70807 0.347883 2.15879 0.338135Z" fill="#5870BE"/>
<path d="M17.2488 13.6686C17.2492 11.7849 17.7761 9.94374 18.7629 8.37774C19.7498 6.81174 21.1522 5.59131 22.7928 4.87071C24.4335 4.15011 26.2388 3.96179 27.9803 4.32945C29.7219 4.69711 31.3217 5.60428 32.5773 6.93629C33.8328 8.2683 34.6879 9.96532 35.0343 11.8128C35.3807 13.6602 35.2028 15.5752 34.5233 17.3155C33.8438 19.0557 32.6932 20.543 31.2168 21.5896C29.7404 22.6362 28.0045 23.195 26.2288 23.1952C25.0494 23.1952 23.8816 22.9489 22.792 22.4701C21.7024 21.9913 20.7124 21.2897 19.8785 20.405C19.0447 19.5204 18.3832 18.4703 17.932 17.3144C17.4808 16.1586 17.2486 14.9196 17.2488 13.6686Z" fill="#FFAF38"/>
<path d="M12.4697 23.1932C10.9386 23.1931 9.43302 22.7776 8.09592 21.9864C6.75881 21.1952 5.63463 20.0544 4.83017 18.6726C4.02571 17.2907 3.56768 15.7138 3.4996 14.0913C3.43153 12.4688 3.75569 10.8545 4.44125 9.40233C5.12681 7.95013 6.15104 6.70839 7.4166 5.7943C8.68215 4.88021 10.147 4.32431 11.672 4.17985C13.197 4.03539 14.7315 4.30692 16.1297 4.96869C17.5279 5.63045 18.7435 6.66051 19.6607 7.96088H18.4608V8.59744H20.0737C20.1947 8.80004 20.3088 9.00993 20.4148 9.22208H17.8607V9.85864H20.7037C20.7917 10.0708 20.8708 10.283 20.9408 10.4952H17.2607V11.1312H21.1288C21.6149 13.013 21.5479 15.0075 20.9367 16.8478H17.2607V17.4844H20.6997C20.6097 17.704 20.5128 17.9085 20.4148 18.1111H17.8607V18.7477H20.0667C19.9337 18.9704 19.7948 19.1838 19.6538 19.3842H18.4608V20.0208H19.1607C18.318 21.0183 17.2866 21.8163 16.1338 22.363C14.9809 22.9096 13.7325 23.1923 12.4697 23.1932Z" fill="#E63737"/>
<path d="M2.66103 15.0647L3.17688 10.8009L4.02453 10.9163L4.6666 14.0724C4.72547 14.3662 4.76776 14.5858 4.79344 14.7312C4.86059 14.5827 4.96363 14.3651 5.10256 14.0786L6.4804 11.2506L7.23806 11.3537L6.72221 15.6176L6.17936 15.5437L6.61111 11.975L4.94272 15.3753L4.43471 15.3062L3.64302 11.5088L3.20388 15.1386L2.66103 15.0647ZM9.62187 15.625C9.4084 15.7635 9.20757 15.8544 9.01938 15.8978C8.83312 15.9414 8.63743 15.9493 8.43229 15.9213C8.09361 15.8752 7.84329 15.7574 7.68131 15.5678C7.51957 15.3763 7.4543 15.1516 7.4855 14.8937C7.5038 14.7425 7.55432 14.6094 7.63707 14.4945C7.72198 14.378 7.82417 14.2894 7.94363 14.2288C8.06503 14.1685 8.19774 14.1284 8.34177 14.1086C8.44763 14.0954 8.60562 14.0903 8.81574 14.0933C9.24373 14.1003 9.56161 14.0825 9.76939 14.0398C9.78001 13.9683 9.78649 13.9229 9.78883 13.9035C9.81464 13.6902 9.78347 13.5332 9.69532 13.4325C9.5761 13.2961 9.38489 13.2099 9.12169 13.1741C8.87591 13.1406 8.68872 13.1595 8.56011 13.2307C8.43367 13.3002 8.32914 13.4407 8.24651 13.6521L7.74404 13.5128C7.81699 13.3 7.91478 13.134 8.03741 13.0147C8.16027 12.8934 8.32667 12.8106 8.53662 12.7663C8.74681 12.72 8.98446 12.7149 9.2496 12.751C9.51279 12.7868 9.72289 12.847 9.87988 12.9314C10.0369 13.0159 10.1483 13.1108 10.2142 13.2164C10.2804 13.32 10.3203 13.4457 10.3339 13.5934C10.3405 13.6849 10.3297 13.847 10.3016 14.0797L10.2171 14.7778C10.1583 15.2644 10.1316 15.5742 10.1372 15.707C10.1449 15.8381 10.1745 15.9673 10.226 16.0946L9.68027 16.0203C9.63922 15.9043 9.61975 15.7726 9.62187 15.625ZM9.71978 14.4499C9.52074 14.5016 9.22827 14.5288 8.84239 14.5315C8.62382 14.5333 8.46768 14.5475 8.37397 14.5741C8.28025 14.6008 8.20463 14.6487 8.1471 14.7177C8.0898 14.7848 8.05564 14.8639 8.04462 14.955C8.02773 15.0946 8.0659 15.2181 8.15915 15.3254C8.25433 15.433 8.40352 15.5006 8.60673 15.5282C8.80799 15.5556 8.99229 15.5364 9.1596 15.4705C9.32715 15.4026 9.45696 15.2971 9.54903 15.1539C9.61946 15.0433 9.66864 14.8726 9.69655 14.6419L9.71978 14.4499ZM10.7759 15.2322L11.3025 15.2211C11.3064 15.4326 11.3675 15.6025 11.4857 15.7309C11.6059 15.8596 11.785 15.9402 12.023 15.9726C12.263 16.0053 12.4469 15.981 12.5747 15.8999C12.7028 15.8168 12.7748 15.7093 12.7908 15.5775C12.8051 15.4592 12.7651 15.3592 12.6707 15.2773C12.6047 15.221 12.4339 15.1377 12.158 15.0272C11.7866 14.8781 11.5306 14.7585 11.39 14.6684C11.2516 14.5766 11.1512 14.4634 11.0888 14.3288C11.0286 14.1925 11.0076 14.0487 11.0259 13.8975C11.0426 13.7598 11.0889 13.637 11.1649 13.5291C11.2431 13.4195 11.341 13.3333 11.4588 13.2705C11.5474 13.2215 11.6638 13.1861 11.808 13.1643C11.9545 13.1409 12.108 13.1401 12.2686 13.162C12.5105 13.1949 12.7182 13.2587 12.8917 13.3532C13.0671 13.4481 13.1911 13.5615 13.2636 13.6936C13.3364 13.8237 13.3772 13.9909 13.3859 14.1951L12.8665 14.1953C12.8625 14.0332 12.8098 13.8999 12.7084 13.7954C12.6089 13.6912 12.4575 13.6252 12.2543 13.5976C12.0143 13.5649 11.8382 13.5813 11.726 13.6469C11.6139 13.7124 11.5513 13.7985 11.5384 13.9052C11.5302 13.973 11.5441 14.037 11.5801 14.0971C11.6159 14.1591 11.677 14.2147 11.7635 14.264C11.8134 14.2905 11.9619 14.356 12.2089 14.4606C12.5666 14.6098 12.8141 14.7263 12.9515 14.81C13.0911 14.8921 13.1952 14.9989 13.2639 15.1304C13.3326 15.262 13.3561 15.4169 13.3345 15.5953C13.3134 15.7698 13.2422 15.9277 13.1208 16.0688C13.0017 16.2083 12.8411 16.3077 12.6392 16.3669C12.4375 16.4242 12.2157 16.4364 11.9738 16.4034C11.5732 16.3489 11.2776 16.2239 11.0868 16.0284C10.8979 15.8332 10.7943 15.5678 10.7759 15.2322ZM15.0435 16.2744L15.063 16.7471C14.9121 16.7581 14.7787 16.7557 14.6626 16.7399C14.4729 16.7141 14.3295 16.664 14.2322 16.5897C14.135 16.5153 14.0709 16.4268 14.0401 16.324C14.0095 16.2194 14.0132 16.01 14.0512 15.6958L14.2662 13.9188L13.883 13.8666L13.9323 13.4594L14.3154 13.5116L14.408 12.7466L14.9656 12.5033L14.8351 13.5823L15.3605 13.6538L15.3112 14.061L14.7858 13.9895L14.5673 15.7957C14.5492 15.945 14.5463 16.0421 14.5586 16.0872C14.5728 16.1325 14.5987 16.1705 14.6363 16.2012C14.6758 16.2322 14.7342 16.253 14.8117 16.2635C14.8697 16.2714 14.947 16.275 15.0435 16.2744ZM17.7314 16.1052L18.2632 16.2456C18.1398 16.55 17.9524 16.7739 17.701 16.917C17.4496 17.0602 17.1449 17.1074 16.7869 17.0586C16.336 16.9973 15.9947 16.8099 15.7631 16.4965C15.5337 16.1815 15.4494 15.7729 15.5101 15.2707C15.573 14.751 15.7553 14.3659 16.0571 14.1153C16.3589 13.8647 16.7227 13.7683 17.1484 13.8263C17.5606 13.8824 17.8804 14.0688 18.1076 14.3855C18.3349 14.7023 18.4176 15.1156 18.3559 15.6255C18.3522 15.6566 18.3456 15.703 18.3361 15.7648L16.037 15.4518C16.0153 15.7937 16.0797 16.0666 16.2301 16.2704C16.3806 16.4741 16.5845 16.5935 16.8419 16.6286C17.0334 16.6547 17.2031 16.6265 17.3507 16.5441C17.4984 16.4617 17.6253 16.3154 17.7314 16.1052ZM16.1181 15.0253L17.8396 15.2596C17.8478 14.9966 17.8056 14.7928 17.7129 14.6481C17.5709 14.4238 17.3673 14.2936 17.1022 14.2575C16.8622 14.2249 16.6502 14.2778 16.4662 14.4163C16.2842 14.5551 16.1682 14.7581 16.1181 15.0253ZM18.8041 17.2623L19.1778 14.1735L19.6481 14.2375L19.5914 14.7058C19.7379 14.503 19.8657 14.3736 19.9748 14.3175C20.0858 14.2616 20.2023 14.242 20.3242 14.2586C20.5003 14.2826 20.6725 14.3632 20.8408 14.5004L20.6021 14.9616C20.4835 14.8686 20.3604 14.8134 20.2326 14.796C20.1185 14.7805 20.0117 14.8014 19.9123 14.8588C19.8131 14.9143 19.7368 15.0005 19.6833 15.1174C19.6027 15.2956 19.549 15.4953 19.5223 15.7163L19.3267 17.3334L18.8041 17.2623ZM24.0738 16.4601L24.6197 16.6793C24.4456 17.1266 24.1899 17.4515 23.8526 17.6539C23.5176 17.8547 23.1284 17.9249 22.6852 17.8646C22.2266 17.8021 21.8643 17.6582 21.5985 17.4328C21.3348 17.2057 21.149 16.9045 21.041 16.5291C20.9349 16.154 20.9065 15.7628 20.9557 15.3557C21.0094 14.9116 21.1404 14.5363 21.3487 14.2296C21.5591 13.9212 21.8304 13.7029 22.1626 13.5747C22.497 13.4448 22.8519 13.4054 23.2274 13.4565C23.6532 13.5144 23.998 13.6718 24.2621 13.9284C24.5261 14.1851 24.6914 14.5181 24.7579 14.9272L24.1876 14.9826C24.1265 14.6589 24.0106 14.4136 23.84 14.2465C23.6694 14.0794 23.4419 13.9764 23.1574 13.9377C22.8303 13.8932 22.547 13.9344 22.3073 14.0615C22.0697 14.1888 21.8902 14.3792 21.7691 14.6327C21.6481 14.8843 21.5707 15.1506 21.5367 15.4318C21.4928 15.7944 21.5067 16.1185 21.5784 16.4042C21.6522 16.6882 21.7923 16.9123 21.9987 17.0763C22.205 17.2404 22.4379 17.3401 22.6972 17.3754C23.0127 17.4184 23.2907 17.3636 23.5315 17.2111C23.7722 17.0586 23.953 16.8083 24.0738 16.4601ZM27.1438 18.0103C26.9304 18.1488 26.7296 18.2397 26.5414 18.2831C26.3551 18.3267 26.1594 18.3345 25.9543 18.3066C25.6156 18.2605 25.3653 18.1427 25.2033 17.9531C25.0416 17.7616 24.9763 17.5369 25.0075 17.279C25.0258 17.1277 25.0763 16.9947 25.1591 16.8798C25.244 16.7633 25.3462 16.6747 25.4656 16.6141C25.587 16.5537 25.7197 16.5137 25.8638 16.4939C25.9696 16.4807 26.1276 16.4756 26.3377 16.4786C26.7657 16.4856 27.0836 16.4678 27.2914 16.4251C27.302 16.3536 27.3085 16.3082 27.3108 16.2888C27.3366 16.0755 27.3054 15.9185 27.2173 15.8178C27.0981 15.6814 26.9069 15.5952 26.6437 15.5594C26.3979 15.5259 26.2107 15.5448 26.0821 15.616C25.9557 15.6855 25.8511 15.826 25.7685 16.0374L25.266 15.8981C25.339 15.6853 25.4368 15.5193 25.5594 15.4C25.6823 15.2787 25.8487 15.1959 26.0586 15.1516C26.2688 15.1053 26.5064 15.1002 26.7716 15.1363C27.0348 15.1721 27.2449 15.2323 27.4019 15.3167C27.5589 15.4011 27.6703 15.4961 27.7362 15.6017C27.8024 15.7053 27.8423 15.8309 27.8559 15.9786C27.8625 16.0702 27.8517 16.2323 27.8236 16.465L27.7391 17.163C27.6802 17.6497 27.6536 17.9595 27.6592 18.0923C27.6669 18.2234 27.6965 18.3526 27.748 18.4798L27.2023 18.4056C27.1612 18.2896 27.1417 18.1578 27.1438 18.0103ZM27.2418 16.8352C27.0427 16.8869 26.7503 16.9141 26.3644 16.9168C26.1458 16.9186 25.9897 16.9328 25.896 16.9594C25.8022 16.9861 25.7266 17.0339 25.6691 17.103C25.6118 17.1701 25.5776 17.2492 25.5666 17.3403C25.5497 17.4799 25.5879 17.6034 25.6811 17.7107C25.7763 17.8182 25.9255 17.8858 26.1287 17.9135C26.33 17.9409 26.5143 17.9217 26.6816 17.8557C26.8491 17.7879 26.9789 17.6824 27.071 17.5392C27.1414 17.4286 27.1906 17.2579 27.2185 17.0271L27.2418 16.8352ZM28.3895 18.5672L28.7632 15.4784L29.2335 15.5424L29.1769 16.0107C29.3234 15.8079 29.4511 15.6784 29.5602 15.6223C29.6712 15.5665 29.7877 15.5469 29.9096 15.5635C30.0857 15.5875 30.2579 15.6681 30.4263 15.8053L30.1875 16.2665C30.0689 16.1735 29.9458 16.1183 29.8181 16.1009C29.7039 16.0854 29.5971 16.1063 29.4977 16.1637C29.3985 16.2192 29.3222 16.3054 29.2687 16.4223C29.1881 16.6005 29.1345 16.8002 29.1077 17.0212L28.9121 18.6383L28.3895 18.5672ZM32.3752 19.1098L32.4224 18.72C32.1899 18.9998 31.884 19.1138 31.5046 19.0622C31.2589 19.0287 31.0406 18.93 30.85 18.7661C30.6613 18.6025 30.5245 18.3917 30.4396 18.1338C30.3569 17.8742 30.3347 17.5864 30.3729 17.2703C30.4102 16.962 30.4953 16.6898 30.6281 16.4536C30.7612 16.2155 30.9384 16.0435 31.1597 15.9376C31.3811 15.8318 31.6185 15.7961 31.872 15.8306C32.0578 15.8559 32.2184 15.9182 32.354 16.0174C32.4897 16.1148 32.5955 16.2326 32.6712 16.371L32.8563 14.8412L33.3759 14.9119L32.86 19.1758L32.3752 19.1098ZM30.91 17.3434C30.8621 17.739 30.9096 18.046 31.0523 18.2645C31.1951 18.483 31.3796 18.6076 31.6061 18.6385C31.8344 18.6695 32.0392 18.6028 32.2204 18.4383C32.4038 18.2721 32.5187 17.997 32.5652 17.6131C32.6163 17.1904 32.5726 16.8691 32.4339 16.6492C32.2953 16.4293 32.107 16.3031 31.8689 16.2707C31.6367 16.2391 31.4307 16.3076 31.2509 16.4763C31.0731 16.6452 30.9595 16.9343 30.91 17.3434Z" fill="white"/>
</svg>
