<svg width="39" height="28" viewBox="0 0 39 28" fill="none" xmlns="http://www.w3.org/2000/svg">
<path d="M2.34193 0.509033H37.0769C37.5257 0.521821 37.9515 0.72226 38.2614 1.06686C38.5712 1.41147 38.74 1.87213 38.7308 2.34827V25.338C38.74 25.8141 38.5712 26.2748 38.2614 26.6194C37.9515 26.964 37.5257 27.1644 37.0769 27.1772H2.34193C1.89313 27.1644 1.46723 26.964 1.15736 26.6194C0.847478 26.2748 0.678732 25.8141 0.687873 25.338V2.34931C0.678465 1.87299 0.847206 1.41222 1.15711 1.06738C1.46702 0.722548 1.89296 0.52182 2.34193 0.509033Z" fill="#F1F1F1"/>
<path d="M1.09974 26.5505C0.834122 26.2102 0.689457 25.7818 0.690803 25.34V2.34931C0.681395 1.87299 0.850014 1.41222 1.15992 1.06738C1.46983 0.722548 1.89576 0.52182 2.34473 0.509033H37.0787C37.5004 0.510037 37.9048 0.686668 38.2047 1.00108L1.10474 26.5505H1.09974Z" fill="white" fill-opacity="0.73"/>
<path d="M15.3359 19.5656L16.6359 17.0727L15.9119 11.0857H17.6829L17.9689 14.629L19.7019 11.0857H21.5299L17.3209 19.5656H15.3359ZM9.78284 15.0936C10.0558 13.6361 11.3828 13.1736 13.3448 13.1736C13.4618 12.5254 13.0729 12.3629 12.4109 12.3873C11.8272 12.4173 11.2534 12.5586 10.7169 12.8043L10.8718 11.3478C11.516 11.1355 12.1831 11.0109 12.8569 10.9775C14.0829 10.9541 15.4459 11.3693 15.1349 13.0591L14.3759 17.0369H12.6049L12.7208 16.434C12.5153 16.6591 12.2696 16.8387 11.9979 16.9618C11.7263 17.085 11.4343 17.1494 11.1389 17.1514C10.2999 17.1472 9.55294 16.5676 9.78394 15.0889L9.78284 15.0936ZM11.5939 15.0009C11.5381 15.0846 11.5065 15.1838 11.5027 15.2863C11.4989 15.3887 11.5232 15.4903 11.5726 15.5784C11.622 15.6665 11.6943 15.7376 11.781 15.783C11.8677 15.8283 11.9649 15.8458 12.0609 15.8337C12.28 15.8441 12.4952 15.7701 12.667 15.6255C12.8388 15.4809 12.9556 15.2757 12.9958 15.047C13.019 14.8682 13.0524 14.6911 13.0958 14.5166H12.6478C12.4483 14.497 12.2473 14.5306 12.0632 14.6145C11.8791 14.6984 11.7178 14.8297 11.5939 14.9967V15.0009ZM3.68286 17.0369L5.14685 9.42879H8.45386C8.74866 9.42602 9.03981 9.49839 9.30286 9.63959C9.5659 9.7808 9.79321 9.9868 9.9657 10.2404C10.1382 10.494 10.2508 10.7878 10.2942 11.0971C10.3375 11.4064 10.3103 11.7221 10.2148 12.018C10.1197 12.7137 9.79091 13.3496 9.28894 13.8086C8.78697 14.2676 8.14563 14.5193 7.48291 14.5166H6.09985L5.62488 17.0369H3.68286ZM6.37585 13.0591H7.28589C7.55209 13.0366 7.80413 12.9225 8.00415 12.7349C8.20417 12.5472 8.34134 12.2955 8.3949 12.018C8.43687 11.9038 8.45227 11.7809 8.43982 11.6591C8.42737 11.5372 8.38743 11.4203 8.32336 11.3183C8.2593 11.2163 8.17299 11.1324 8.07178 11.0733C7.97056 11.0142 7.85733 10.9814 7.74182 10.9785H6.79187L6.37585 13.0591Z" fill="#3284AE"/>
<path d="M26.9999 15.0888C27.2759 13.6313 28.6168 13.1703 30.6058 13.1703C30.7438 12.5211 30.3499 12.3607 29.6799 12.3841C29.0838 12.4166 28.4973 12.5573 27.9459 12.8L28.1039 11.3435C28.7636 11.1338 29.445 11.0097 30.1329 10.9742C31.3739 10.9509 32.7328 11.3655 32.4178 13.0543L31.6499 17.0311H29.8768L29.9949 16.4308C29.5653 16.886 28.984 17.1439 28.3768 17.1481C27.5188 17.1471 26.7629 16.5685 26.9999 15.0888ZM28.8329 14.9966C28.779 15.0831 28.7497 15.1845 28.7485 15.2882C28.7474 15.3919 28.7745 15.4935 28.8265 15.5813C28.8785 15.6692 28.9532 15.7394 29.0417 15.7833C29.1303 15.8273 29.229 15.8434 29.3259 15.8294C29.5437 15.8398 29.7575 15.7656 29.9279 15.6212C30.0982 15.4769 30.2133 15.2719 30.2518 15.0442C30.2908 14.8586 30.3109 14.6963 30.3519 14.5139H29.9188C29.7139 14.4919 29.507 14.5246 29.3169 14.6086C29.1268 14.6927 28.9594 14.8256 28.8298 14.9955L28.8329 14.9966ZM32.4689 17.0311L33.9349 9.40015H35.7549L34.2699 17.0311H32.4689ZM20.8999 17.0311L22.3619 9.42449H25.6619C25.9558 9.42365 26.2457 9.49714 26.5076 9.63892C26.7694 9.7807 26.9956 9.9867 27.1674 10.2397C27.3391 10.4928 27.4515 10.7855 27.4952 11.0938C27.539 11.4022 27.5128 11.7172 27.4188 12.0127C27.3235 12.7108 26.9929 13.3486 26.4882 13.8079C25.9834 14.2672 25.3388 14.517 24.6738 14.5107H23.3109L22.8169 17.0301L20.8999 17.0311ZM23.5869 13.0543H24.4749C24.7432 13.0324 24.9978 12.9196 25.2008 12.7321C25.4038 12.5447 25.5445 12.2926 25.6019 12.0137C25.6417 11.898 25.6549 11.7739 25.6404 11.6517C25.6259 11.5294 25.5841 11.4125 25.5184 11.3109C25.4528 11.2092 25.3652 11.126 25.2631 11.0674C25.1609 11.0089 25.047 10.9767 24.9309 10.9742H23.9829L23.5869 13.0543Z" fill="#3CA9C7"/>
</svg>
