<svg width="39" height="28" viewBox="0 0 39 28" fill="none" xmlns="http://www.w3.org/2000/svg">
<path d="M2.29185 0.547974H37.2739C37.4972 0.552663 37.7173 0.604232 37.9219 0.699215C38.1264 0.794198 38.3113 0.930851 38.466 1.10166C38.6208 1.27247 38.7423 1.47409 38.8236 1.69471C38.9049 1.91533 38.9443 2.1509 38.9398 2.38773V25.3805C38.9486 25.8586 38.7781 26.3208 38.4657 26.6655C38.1533 27.0103 37.7246 27.2092 37.2739 27.2187H2.29185C1.84113 27.2092 1.41238 27.0103 1.09996 26.6655C0.78753 26.3208 0.616995 25.8586 0.625835 25.3805V2.38773C0.621325 2.1509 0.660876 1.91533 0.742168 1.69471C0.82346 1.47409 0.944879 1.27247 1.09959 1.10166C1.2543 0.930851 1.43921 0.794198 1.64378 0.699215C1.84834 0.604232 2.06859 0.552663 2.29185 0.547974Z" fill="#353A40"/>
<path d="M23.3148 18.1187C23.0504 17.9761 22.833 17.7515 22.6909 17.4754C22.5205 17.1373 22.4377 16.7578 22.4509 16.3747C22.4363 16.1136 22.4705 15.852 22.5519 15.6051C22.6332 15.3581 22.7601 15.1309 22.9249 14.9364C23.1002 14.7593 23.3078 14.6223 23.535 14.5339C23.7623 14.4456 24.0042 14.4075 24.2458 14.4226C24.4893 14.406 24.7334 14.4423 24.9631 14.5293C25.1929 14.6163 25.4034 14.7522 25.5819 14.9286C25.7452 15.1195 25.8707 15.3432 25.9513 15.5864C26.0318 15.8296 26.0658 16.0874 26.0509 16.3447C26.0658 16.7177 25.9971 17.0892 25.8508 17.4288C25.7187 17.7052 25.5129 17.9343 25.2589 18.0876C24.9615 18.2544 24.6281 18.3358 24.2919 18.3233C23.9557 18.3361 23.6212 18.2661 23.3148 18.1187ZM23.7208 15.5548C23.5919 15.8076 23.5244 16.0904 23.5244 16.3778C23.5244 16.6653 23.5919 16.948 23.7208 17.2009C23.7888 17.2792 23.8715 17.3415 23.9634 17.3842C24.0553 17.427 24.1545 17.4495 24.2549 17.4495C24.3552 17.4495 24.4545 17.427 24.5464 17.3842C24.6383 17.3415 24.7208 17.2792 24.7888 17.2009C24.9404 16.9385 25.0072 16.6307 24.9789 16.3245C25.0004 16.0481 24.9297 15.7726 24.7789 15.546C24.7128 15.4649 24.6302 15.401 24.5374 15.3585C24.4445 15.3161 24.3439 15.2963 24.2429 15.301C24.1434 15.2981 24.0446 15.3192 23.9541 15.3632C23.8636 15.4071 23.7837 15.473 23.7208 15.5548ZM13.8088 18.2849C13.6345 18.2667 13.465 18.2142 13.3088 18.1301C13.1673 18.0481 13.0423 17.9373 12.9409 17.8043C12.8371 17.678 12.7591 17.5306 12.7119 17.3707C12.6506 17.1646 12.6169 16.9503 12.6119 16.7342V14.4873H13.6829V16.787C13.6781 16.8744 13.6896 16.9623 13.7169 17.045C13.7442 17.1276 13.7867 17.2036 13.8419 17.2687C13.9633 17.3793 14.1179 17.4401 14.2778 17.4401C14.4378 17.4401 14.5925 17.3793 14.7139 17.2687C14.769 17.2029 14.8114 17.1261 14.8385 17.0429C14.8656 16.9597 14.8769 16.8718 14.8718 16.7839V14.4842H15.9429V16.7311C15.9434 16.9477 15.9096 17.1629 15.8429 17.3676C15.7812 17.5624 15.6786 17.7395 15.5428 17.8861C15.4231 18.0246 15.276 18.1331 15.1119 18.2041C14.8707 18.2932 14.6162 18.3358 14.3608 18.3295C14.1765 18.3256 13.9926 18.3104 13.8099 18.2839L13.8088 18.2849ZM28.9479 18.2595L27.6478 16.1888V18.2595H26.6378V14.4884H27.6378L28.9469 16.5741V14.4884H29.9589V18.2595H28.9479ZM18.9698 18.2595L17.6699 16.1888V18.2595H16.6599V14.4884H17.6599L18.9679 16.5741V14.4884H19.9799V18.2595H18.9698ZM20.7399 18.2497V14.4852H21.8198V18.2497H20.7399ZM12.5349 12.9661C12.3034 12.7117 12.1659 12.3776 12.1478 12.0245L13.1699 11.9556C13.1806 12.1027 13.2267 12.2441 13.3038 12.3668C13.3596 12.4428 13.4318 12.5034 13.5143 12.5435C13.5968 12.5835 13.6872 12.6022 13.7778 12.5973C13.9059 12.6064 14.0326 12.564 14.1329 12.4792C14.1705 12.4477 14.2009 12.4078 14.222 12.3622C14.2432 12.3166 14.2544 12.2664 14.255 12.2156C14.2556 12.1648 14.2454 12.1146 14.2253 12.0685C14.2053 12.0224 14.1757 11.9814 14.1389 11.9489C13.9727 11.8346 13.785 11.76 13.5889 11.7303C13.2234 11.6654 12.8781 11.5086 12.5819 11.2724C12.4843 11.1822 12.4066 11.0699 12.3547 10.944C12.3029 10.8182 12.278 10.682 12.2819 10.5447C12.2823 10.3498 12.3362 10.1592 12.4369 9.99619C12.5508 9.81435 12.7135 9.67305 12.9039 9.59011C13.1764 9.47942 13.4674 9.42907 13.7589 9.4425C14.1158 9.41724 14.4712 9.51138 14.7749 9.71183C14.8974 9.81466 14.9979 9.94425 15.0696 10.0915C15.1413 10.2387 15.1827 10.4004 15.1909 10.5659L14.1788 10.6307C14.1656 10.4897 14.1054 10.3583 14.0089 10.2603C13.9068 10.1777 13.7801 10.1368 13.6519 10.1448C13.5512 10.1371 13.4513 10.1676 13.3699 10.2308C13.3399 10.2562 13.3158 10.2883 13.2993 10.3251C13.2829 10.3618 13.2745 10.402 13.2749 10.4427C13.2757 10.4744 13.2832 10.5055 13.2969 10.5338C13.3105 10.5621 13.33 10.5871 13.3539 10.6063C13.4631 10.6801 13.5864 10.7271 13.7148 10.7441C14.0624 10.8124 14.4012 10.9241 14.7239 11.0771C14.9059 11.1697 15.0594 11.3149 15.1669 11.4962C15.2597 11.665 15.3075 11.8575 15.3049 12.053C15.3062 12.2904 15.2418 12.523 15.1199 12.7222C14.9945 12.9277 14.8146 13.0893 14.6029 13.1868C14.3376 13.3003 14.0528 13.3546 13.7668 13.3452C13.3252 13.3942 12.8831 13.2575 12.5349 12.9651V12.9661ZM28.9489 13.2738L27.6489 11.2025V13.2738H26.6389V9.5031H27.6389L28.9479 11.5894V9.5031H29.9598V13.2738H28.9489ZM25.0739 13.2738L24.4999 12.1208C24.4537 12.0115 24.3874 11.9131 24.3049 11.8313C24.228 11.7729 24.1355 11.7421 24.0409 11.7432H23.9459V13.2738H22.8668V9.5031H24.6559C24.9125 9.49242 25.1691 9.52345 25.4169 9.59529C25.5908 9.65558 25.7406 9.77602 25.8419 9.93766C25.9531 10.1191 26.0093 10.3325 26.0029 10.5488C26.0074 10.7378 25.965 10.925 25.8799 11.0911C25.7975 11.2422 25.6806 11.3684 25.5399 11.4589C25.4224 11.5297 25.2952 11.5806 25.1628 11.6096C25.2621 11.6407 25.3564 11.687 25.4429 11.7474C25.5071 11.8064 25.5646 11.8733 25.6139 11.9468C25.671 12.0194 25.7215 12.0978 25.7649 12.1804L26.2849 13.2738H25.0739ZM23.9469 11.0295H24.3999C24.4959 11.0222 24.5909 11.0047 24.6838 10.9782C24.7535 10.963 24.8155 10.9213 24.8579 10.8606C24.903 10.7975 24.9269 10.7202 24.9259 10.641C24.929 10.5887 24.921 10.5364 24.9025 10.4877C24.8839 10.4391 24.8553 10.3952 24.8188 10.3598C24.6992 10.2818 24.5585 10.248 24.4188 10.2634H23.9469V11.0295ZM19.3469 13.2738V9.5031H22.2249V10.308H20.4249V10.9073H22.0969V11.6774H20.4249V12.4202H22.2799V13.2738H19.3469ZM16.6948 13.2738V10.4344H15.5999V9.5031H18.8649V10.4344H17.7649V13.2738H16.6948ZM8.82983 13.2738V9.5031H11.7079V10.308H9.90784V10.9073H11.5789V11.6774H9.8999V12.4202H11.7529V13.2738H8.82983ZM6.66284 13.2738L6.05383 10.899L5.4469 13.2738H4.39392L3.62085 9.5031H4.64087L5.00793 11.6137L5.5459 9.5031H6.56189L7.10083 11.6117L7.4679 9.5031H8.48291L7.71692 13.2738H6.66284Z" fill="#ECD345"/>
<path d="M34.7498 18.3254V9.4364H35.9497V18.3254H34.7498ZM31.7598 18.3254V9.4364H32.9597V18.3254H31.7598Z" fill="#ECD345"/>
</svg>
