<svg width="40" height="28" viewBox="0 0 40 28" fill="none" xmlns="http://www.w3.org/2000/svg">
<path d="M2.39488 0.338135H37.3949C37.6182 0.342686 37.8385 0.393936 38.0432 0.488858C38.2479 0.58378 38.4329 0.720481 38.5877 0.891304C38.7426 1.06213 38.8641 1.26367 38.9454 1.48436C39.0268 1.70504 39.0664 1.94046 39.0619 2.17737V25.1686C39.0664 25.4055 39.0268 25.6409 38.9454 25.8616C38.8641 26.0823 38.7426 26.2839 38.5877 26.4547C38.4329 26.6255 38.2479 26.7622 38.0432 26.8571C37.8385 26.952 37.6182 27.0033 37.3949 27.0078H2.39488C2.17153 27.0033 1.95124 26.952 1.74656 26.8571C1.54188 26.7622 1.35682 26.6255 1.20201 26.4547C1.04719 26.2839 0.925573 26.0823 0.844219 25.8616C0.762865 25.6409 0.723377 25.4055 0.727886 25.1686V2.17737C0.723377 1.94046 0.762865 1.70504 0.844219 1.48436C0.925573 1.26367 1.04719 1.06213 1.20201 0.891304C1.35682 0.720481 1.54188 0.58378 1.74656 0.488858C1.95124 0.393936 2.17153 0.342686 2.39488 0.338135Z" fill="url(#paint0_linear_3400_5)"/>
<path d="M30.7 18.611L30.448 17.2374H27.714L27.265 18.611H25.0229L28.23 10.056C28.3046 9.84391 28.4412 9.66249 28.6199 9.53862C28.7985 9.41475 29.0099 9.35501 29.223 9.3677H30.952L32.674 18.612L30.7 18.611ZM29.464 11.8813L28.334 15.3407H30.1L29.464 11.8813ZM22.177 12.0025C22.177 13.0123 25.177 13.2284 25.177 15.5505C25.177 17.7865 22.962 18.6089 21.495 18.6089C20.6612 18.6236 19.8339 18.4514 19.067 18.1039L19.387 16.099C20.267 16.8627 22.936 17.0804 22.936 15.868C22.936 14.6555 19.9611 14.6267 19.9611 12.3185C19.9611 9.86597 22.495 9.36096 23.561 9.36096C24.2213 9.37892 24.8744 9.51059 25.495 9.75046L25.188 11.6695C24.27 11.1264 22.175 10.9968 22.175 12.0066L22.177 12.0025ZM15.593 18.611L16.937 9.36614H19.088L17.744 18.611H15.593ZM10.436 18.611L8.56995 10.5895C8.8996 10.8079 9.21411 11.0512 9.51099 11.3173C10.408 12.1315 11.0905 13.1783 11.4919 14.3561L11.735 15.7255L13.786 9.3677H16.101L12.679 18.612L10.436 18.611ZM6.64197 9.61994L6.54199 9.58834L6.64197 9.61994ZM6.422 9.55105L6.37402 9.53706L6.422 9.55105ZM6.95105 9.7313L6.823 9.68364L6.95105 9.7313ZM8.44202 10.5004C8.37535 10.4566 8.30861 10.4144 8.24194 10.3741C8.30594 10.4207 8.37194 10.4611 8.43994 10.5056L8.44202 10.5004ZM7.92798 10.1928C7.86998 10.161 7.81005 10.1272 7.75305 10.0975C7.80805 10.1325 7.86703 10.1661 7.92603 10.198L7.92798 10.1928ZM7.39294 9.92035L7.27502 9.86596L7.39294 9.92035Z" fill="#494CA3"/>
<path d="M11.489 14.3605L10.765 10.2044C10.727 9.95395 10.6002 9.72833 10.4106 9.57358C10.2211 9.41883 9.98301 9.34698 9.745 9.3721H6.35498L6.31494 9.528C7.492 9.86467 8.58282 10.4772 9.50696 11.3206C10.4045 12.135 11.0875 13.1822 11.489 14.3605Z" fill="#FFC000"/>
<defs>
<linearGradient id="paint0_linear_3400_5" x1="19.8949" y1="27.0078" x2="19.8949" y2="0.338135" gradientUnits="userSpaceOnUse">
<stop stop-color="#E59703"/>
<stop offset="0.231" stop-color="#E59703"/>
<stop offset="0.234" stop-color="white"/>
<stop offset="0.761" stop-color="white"/>
<stop offset="0.766" stop-color="#5457BB"/>
<stop offset="1" stop-color="#5457BB"/>
</linearGradient>
</defs>
</svg>
